<svg xmlns="http://www.w3.org/2000/svg" viewBox="0 0 466 125"><style>.a{fill:#fff}</style><path d="M94.5 25l2-22H7.8L.3 88h65.9l-3 34h41l5.2-59h39.3l3.3-38H94.5zm47.1 30h-39l-.7 8-4.5 52h-26l4.5-52h.1l.7-8h-39l1.9-22h103.9l-1.9 22z" fill="#fff"/><path d="M194.5 25.2c0 1-.1 1.9-.1 2.7 0 .9-.1 1.8-.1 2.7h-8.2l-2.8 32.1H177l2.8-32.1h-9.3c.1-1 .3-1.9.4-2.7s.3-1.8.4-2.7h23.2zM214 25.2c6.2 0 9 2.6 8.6 7.9l-.6 7.1c-.4 4.1-2.5 6.7-6.5 8 .9 2.3 1.9 4.8 2.9 7.3s2 4.9 2.9 7.3h-6.8l-4.7-14.7h-6.2l-1.3 14.4c-1.1 0-2.2.1-3.2.1-1 .1-2.1.1-3.1.1l3.3-37.6H214zm-10 17.9h7.1c2.9 0 4.5-1 4.6-3l.6-6.6c.2-2-1.2-3-4.1-3h-7.1L204 43.1zM245.6 25.2c.8 6.3 1.7 12.6 2.5 18.8.8 6.2 1.7 12.5 2.5 18.8h-6.2l-1.5-8.2h-10.8c-.4 1.3-.9 2.7-1.3 4.1-.5 1.4-.9 2.8-1.3 4.1h-6.3c2-6.3 4-12.6 5.9-18.8 2-6.2 3.9-12.5 5.9-18.8h10.6zm-11.9 24.5h8.8L240 31.5h-.5l-5.8 18.2zM270.6 25.2c6.2 0 9 2.6 8.6 7.9l-1.9 21.8c-.5 5.3-3.8 7.9-10 7.9h-14.7l3.3-37.6h14.7zm-4.1 32.1c2.9 0 4.4-1 4.6-3l1.8-20.7c.2-2-1.2-3-4.1-3h-7.1l-2.3 26.7h7.1zM305.2 30.6h-15l-1 10.9h12.3l-.4 4.9h-12.3l-1 10.9h15c-.1 1-.2 1.9-.4 2.7-.1.9-.3 1.8-.4 2.7h-21l3.3-37.6h21l-.1 5.5zM145.3 122.1h-12c-6.2 0-9-2.6-8.6-7.9l1.9-21.8c.5-5.3 3.8-7.9 10-7.9h12c-.1 1-.2 1.9-.4 2.7s-.3 1.8-.4 2.7h-10.4c-2.9 0-4.4 1-4.6 3l-1.8 20.7c-.2 2 1.2 3 4.1 3h10.4l-.2 5.5zM167.9 84.5c6.2 0 9 2.6 8.6 7.9l-1.9 21.8c-.5 5.3-3.8 7.9-10 7.9h-5.5c-6.2 0-9-2.6-8.6-7.9l1.9-21.8c.5-5.3 3.8-7.9 10-7.9h5.5zm-4.2 32.2c2.9 0 4.4-1 4.6-3l1.8-20.7c.2-2-1.2-3-4.1-3h-2.7c-2.9 0-4.4 1-4.6 3l-1.8 20.7c-.2 2 1.2 3 4.1 3h2.7zM196.7 122.1l-9.5-24.5-.5.1-2.1 24.1c-1.1 0-2.2.1-3.2.1-1 .1-2.1.1-3.1.1l3.3-37.6h6.7l9.8 24.5.5-.1 2.1-24.1c1.1 0 2.2-.1 3.2-.1 1-.1 2.1-.1 3.1-.1l-3.3 37.6h-7zM231.9 121.9c-2.5 0-4.9.1-7.2.1-2.4.1-4.8.1-7.2.1-6.2 0-9-2.6-8.6-7.9l1.9-21.8c.5-5.3 3.8-7.9 10-7.9h12.8c-.1 1-.2 1.9-.4 2.7-.1.9-.3 1.8-.4 2.7h-11.2c-2.9 0-4.4 1-4.6 3l-1.8 20.7c-.2 2 1.2 3 4.1 3h7.1l1-10.9h-4.1c0-.8.1-1.6.1-2.4 0-.8 0-1.6.1-2.4h10.3l-1.9 21zM245.9 84.8l-2.8 31.9h15c-.1 1-.2 1.9-.4 2.7-.1.9-.3 1.8-.4 2.7h-21l3.3-37.6 6.3.3zM280.1 84.5c6.2 0 9 2.6 8.6 7.9l-1.9 21.8c-.5 5.3-3.8 7.9-10 7.9h-5.5c-6.2 0-9-2.6-8.6-7.9l1.9-21.8c.5-5.3 3.8-7.9 10-7.9h5.5zm-4.1 32.2c2.9 0 4.4-1 4.6-3l1.8-20.7c.2-2-1.2-3-4.1-3h-2.7c-2.9 0-4.4 1-4.6 3l-1.8 20.7c-.2 2 1.2 3 4.1 3h2.7zM290.5 122.1l3.3-37.6h8l6.9 26.1c1.9-4.3 3.8-8.6 5.7-13.1 1.9-4.4 3.9-8.8 5.7-13.1h8l-3.3 37.6c-1.1 0-2.1-.1-3.1-.1-1-.1-2-.1-3.1-.1l2.1-23.5-.5-.1c-1.6 3.8-3.2 7.6-4.9 11.4-1.6 3.8-3.2 7.6-4.9 11.4h-5.3l-5.7-22.8-.5.1-2.1 23.5-6.3.3zM353.3 90h-15l-1 10.9h12.3l-.4 4.9h-12.3l-1 10.9h15c-.1 1-.2 1.9-.4 2.7-.1.9-.3 1.8-.4 2.7h-21l3.3-37.6h21l-.1 5.5zM373 84.5c6.2 0 9 2.6 8.6 7.9l-.6 7.1c-.4 4.1-2.5 6.7-6.5 8 .9 2.3 1.9 4.8 2.9 7.3s2 4.9 2.9 7.3h-6.8l-4.7-14.7h-6.2l-1.3 14.4c-1.1 0-2.2.1-3.2.1-1 .1-2.1.1-3.1.1l3.3-37.6H373zm-10 18h7.1c2.9 0 4.5-1 4.6-3l.6-6.6c.2-2-1.2-3-4.1-3h-7.1l-1.1 12.6zM404.6 84.5c.8 6.3 1.7 12.6 2.5 18.8.8 6.2 1.7 12.5 2.5 18.8h-6.2l-1.5-8.2h-10.7c-.4 1.3-.9 2.7-1.3 4.1-.5 1.4-.9 2.8-1.3 4.1h-6.3c2-6.3 4-12.6 5.9-18.8 2-6.2 3.9-12.5 5.9-18.8h10.5zM392.7 109h8.8L399 90.8h-.5l-5.8 18.2zM438.4 84.5c0 1-.1 1.9-.1 2.7 0 .9-.1 1.8-.1 2.7H430l-2.8 32.1h-6.3l2.8-32.1h-9.3c.1-1 .3-1.9.4-2.7.1-.9.3-1.8.4-2.7h23.2zM463.9 90h-15l-1 10.9h12.3l-.4 4.9h-12.3l-1 10.9h15c-.1 1-.2 1.9-.4 2.7-.1.9-.3 1.8-.4 2.7h-21l3.3-37.6h21l-.1 5.5z" class="a"/><path fill="none" d="M0 0h466v125H0z"/></svg>